<svg xmlns="http://www.w3.org/2000/svg" viewBox="0 0 100 100" fill="none">
  <rect width="100" height="100" rx="28" fill="url(#grad)" />
  <!-- Plate & Cutlery Icon -->
  <path d="M32 30V48C32 52.4 35.6 56 40 56V74H44V56C48.4 56 52 52.4 52 48V30M38 30V44M46 30V44" stroke="white" stroke-width="4" stroke-linecap="round" stroke-linejoin="round"/>
  <path d="M68 30C68 30 68 44 64 48C60 52 58 56 58 74H62" stroke="white" stroke-width="4" stroke-linecap="round" stroke-linejoin="round"/>
  <!-- AI Sparkle -->
  <path d="M72 24L74.5 30L80.5 32.5L74.5 35L72 41L69.5 35L63.5 32.5L69.5 30L72 24Z" fill="#F59E0B" />
  <defs>
    <linearGradient id="grad" x1="0" y1="0" x2="100" y2="100" gradientUnits="userSpaceOnUse">
      <stop stop-color="#E11D48"/>
      <stop offset="1" stop-color="#9333EA"/>
    </linearGradient>
  </defs>
</svg>
